# xmcd
#
# Track frame offsets:
#	182
#	47590
#	130860
#	142510
#	150087
#	158685
#	167910
#	183877
#	203462
#	226355
#	249137
#	276177
#	290075
#
# Disc length: 4121 seconds
# Revision: 9
# Processed by: cddbd v1.5.2PL0 Copyright (c) Steve Scherf et al.
# Submitted via: dBpowerAMP V12.0
#
DISCID=9c10170d
DTITLE=KremerataBaltica,condGidonKremer - Silencio
DYEAR=1998
DGENRE=Classical
TTITLE0=TabulaRasa{#1of2,Ludus~ConMoto}
TTITLE1=TabulaRasa{#2of2,Silentium~SenzaMoto}
TTITLE2=Company{#1of4}
TTITLE3=Company{#2of4}
TTITLE4=Company{#3of4}
TTITLE5=Company{#4of4}
TTITLE6=ComeIn{#1of6}
TTITLE7=ComeIn{#2of6}
TTITLE8=ComeIn{#3of6}
TTITLE9=ComeIn{#4of6}
TTITLE10=ComeIn{#5of6}
TTITLE11=ComeIn{#6of6}
TTITLE12=Darf Ich...
EXTD=
EXTT0=
EXTT1=
EXTT2=
EXTT3=
EXTT4=
EXTT5=
EXTT6=
EXTT7=
EXTT8=
EXTT9=
EXTT10=
EXTT11=
EXTT12=
PLAYORDER=
